<?xml version="1.0" encoding="UTF-8"?>
<!DOCTYPE svg PUBLIC "-//W3C//DTD SVG 1.1//EN" "http://www.w3.org/Graphics/SVG/1.1/DTD/svg11.dtd">
<!-- Creator: CorelDRAW 2020 (64-Bit) -->
<svg xmlns="http://www.w3.org/2000/svg" xml:space="preserve" width="1280px" height="1300px" version="1.1" style="shape-rendering:geometricPrecision; text-rendering:geometricPrecision; image-rendering:optimizeQuality; fill-rule:evenodd; clip-rule:evenodd"
viewBox="0 0 1280 1300"
 xmlns:xlink="http://www.w3.org/1999/xlink"
 xmlns:xodm="http://www.corel.com/coreldraw/odm/2003">
 <defs>
  <style type="text/css">
   <![CDATA[
    .fil0 {fill:#EB8157}
   ]]>
  </style>
 </defs>
 <g id="Слой_x0020_1">
  <metadata id="CorelCorpID_0Corel-Layer"/>
  <path class="fil0" d="M90.92 364.95c16.33,22.89 53.8,35.32 57.98,76.33 4.03,39.67 -26.82,68.35 -62.9,71.1 -19.75,1.53 -40.14,0.31 -59,5.54 -21.31,5.93 -28.13,27.54 -16.05,40.95 14.99,16.61 61.7,23.73 85.65,47.9 23.76,23.98 23.45,65.12 -5.7,91.86 -20.89,19.16 -50.8,17.13 -85.13,47.87 -0.22,37.67 14.5,38.11 66.85,40.48 90.91,4.06 87.88,82.59 54.33,114.61 -10.52,10.07 -49.32,38.17 -47.96,59.75 2.17,34.75 48.82,19.67 72.66,12.08 38.14,-12.08 58.95,-11.24 82.54,13.24 56.88,59.06 -44.96,122.51 -8.6,156 36.64,33.72 80.48,-71.99 147.24,-38.8 65.24,32.43 17.39,105.96 34.28,141.12 3.56,7.42 7.37,8.4 16.85,11.01 40.28,11.19 47.88,-93.24 118.73,-87.87 83.65,6.34 49.27,125.18 94.89,125.18l11.13 0c36.38,-8.32 9.59,-116.42 86.84,-124.96 72.5,-7.99 80.9,96.61 119.23,88.24 59.23,-12.97 -23.86,-112.05 51.22,-151.83 66.87,-35.42 110.99,68.99 147.63,39.22 38.89,-31.63 -61.84,-99.51 -8.85,-156.31 54.42,-58.36 145.88,34.94 156.54,-24.37 3.78,-21.23 -34.33,-50.16 -44.54,-59.14 -17.3,-15.22 -35.5,-44.93 -18.97,-79.31 24.22,-50.44 78.55,-31.85 115.91,-42.73 20.48,-5.95 21.34,-13.58 21.29,-35.61 -43.21,-38 -107.86,-32.52 -107.86,-96.5 0,-64.07 64.9,-58.58 107.83,-96.5 0.11,-37.61 -14.24,-38.11 -66.88,-40.48 -91.16,-4.06 -87.79,-83.09 -54.3,-114.58 10.82,-10.15 49.16,-38.22 47.88,-59.78 -0.86,-14.55 -13.19,-23.2 -29.88,-22.51 -41.23,1.76 -82.43,41.62 -125.24,-2.84 -56.91,-59.05 44.9,-122.42 8.57,-155.94 -36.41,-33.61 -80.53,71.63 -147.24,38.77 -53.72,-26.45 -30.77,-82.06 -30.46,-116.44 0.22,-25.07 -4.4,-31.16 -20.7,-35.72 -40.31,-11.27 -47.51,93.3 -118.7,87.9 -83.68,-6.34 -49.27,-125.15 -94.89,-125.18l-11.12 0c-28.1,13.6 -21.68,64.37 -38.37,92.94 -14.55,24.9 -53.96,46.35 -90.38,22.65 -25.7,-16.75 -35.97,-54.7 -58.61,-72.33 -12.3,-9.6 -33.38,-9.88 -38.95,9.09 -10.71,36.36 30.52,123.63 -45.23,141.6 -41.67,9.9 -67.79,-23.09 -91.49,-38.78 -43.51,-28.73 -62.26,2 -40.81,46.43 14.27,29.6 39.22,64.62 11.49,99.34 -49.83,62.31 -121.79,-12.07 -151.22,13.1 -16.81,14.41 -6.51,31.6 2.47,44.2l0 0.01zm186.05 320.91c-20.61,-211.45 139.37,-383.17 328.76,-399.5 211.5,-18.22 380.89,138.12 398.11,328.17 19.22,212.2 -138.37,381.7 -328.01,398.94 -211.97,19.28 -380.25,-136.92 -398.86,-327.61z"/>
 </g>
</svg>
