<svg width="30" height="30" viewBox="0 0 30 30" fill="none" xmlns="http://www.w3.org/2000/svg">
<g clip-path="url(#clip0_32_220)">
<path d="M15 23.75C15.3315 23.75 15.6495 23.8817 15.8839 24.1161C16.1183 24.3505 16.25 24.6685 16.25 25V26.25C16.25 26.5815 16.1183 26.8995 15.8839 27.1339C15.6495 27.3683 15.3315 27.5 15 27.5C14.6685 27.5 14.3505 27.3683 14.1161 27.1339C13.8817 26.8995 13.75 26.5815 13.75 26.25V25C13.75 24.6685 13.8817 24.3505 14.1161 24.1161C14.3505 23.8817 14.6685 23.75 15 23.75ZM22.955 21.1875L23.8387 22.0712C24.0664 22.307 24.1924 22.6228 24.1896 22.9505C24.1867 23.2782 24.0553 23.5918 23.8235 23.8235C23.5918 24.0553 23.2782 24.1867 22.9505 24.1896C22.6227 24.1924 22.307 24.0664 22.0712 23.8387L21.1875 22.955C20.9598 22.7192 20.8338 22.4035 20.8366 22.0757C20.8395 21.748 20.971 21.4345 21.2027 21.2027C21.4345 20.971 21.748 20.8395 22.0757 20.8367C22.4035 20.8338 22.7192 20.9598 22.955 21.1875ZM7.04499 21.1875C7.26994 20.9633 7.57178 20.8332 7.88922 20.8235C8.20666 20.8138 8.51588 20.9253 8.75409 21.1353C8.99229 21.3454 9.14162 21.6382 9.17174 21.9543C9.20185 22.2705 9.1105 22.5863 8.91624 22.8375L8.81249 22.955L7.92874 23.8387C7.70379 24.0629 7.40195 24.1931 7.08451 24.2028C6.76707 24.2125 6.45785 24.101 6.21964 23.8909C5.98143 23.6809 5.83211 23.3881 5.80199 23.0719C5.77187 22.7558 5.86322 22.44 6.05749 22.1887L6.16124 22.0712L7.04499 21.1875ZM15 7.5C16.9891 7.5 18.8968 8.29018 20.3033 9.6967C21.7098 11.1032 22.5 13.0109 22.5 15C22.5 16.9891 21.7098 18.8968 20.3033 20.3033C18.8968 21.7098 16.9891 22.5 15 22.5C13.0109 22.5 11.1032 21.7098 9.69669 20.3033C8.29017 18.8968 7.49999 16.9891 7.49999 15C7.49999 13.0109 8.29017 11.1032 9.69669 9.6967C11.1032 8.29018 13.0109 7.5 15 7.5ZM4.99999 13.75C5.31859 13.7504 5.62503 13.8723 5.8567 14.0911C6.08837 14.3098 6.22778 14.6087 6.24645 14.9267C6.26512 15.2448 6.16165 15.558 5.95716 15.8023C5.75267 16.0466 5.46261 16.2036 5.14624 16.2413L4.99999 16.25H3.74999C3.43139 16.2496 3.12495 16.1277 2.89328 15.9089C2.66161 15.6902 2.52219 15.3913 2.50352 15.0733C2.48485 14.7552 2.58833 14.442 2.79282 14.1977C2.99731 13.9534 3.28737 13.7964 3.60374 13.7587L3.74999 13.75H4.99999ZM26.25 13.75C26.5815 13.75 26.8995 13.8817 27.1339 14.1161C27.3683 14.3505 27.5 14.6685 27.5 15C27.5 15.3315 27.3683 15.6495 27.1339 15.8839C26.8995 16.1183 26.5815 16.25 26.25 16.25H25C24.6685 16.25 24.3505 16.1183 24.1161 15.8839C23.8817 15.6495 23.75 15.3315 23.75 15C23.75 14.6685 23.8817 14.3505 24.1161 14.1161C24.3505 13.8817 24.6685 13.75 25 13.75H26.25ZM6.16124 6.16125C6.37648 5.94603 6.66285 5.81674 6.96664 5.79764C7.27042 5.77854 7.57073 5.87094 7.81124 6.0575L7.92874 6.16125L8.81249 7.045C9.03667 7.26995 9.16683 7.57179 9.17652 7.88923C9.18622 8.20667 9.07472 8.51589 8.86468 8.7541C8.65464 8.99231 8.3618 9.14163 8.04565 9.17175C7.72949 9.20187 7.41373 9.11051 7.16249 8.91625L7.04499 8.8125L6.16124 7.92875C5.9269 7.69434 5.79526 7.37646 5.79526 7.045C5.79526 6.71354 5.9269 6.39566 6.16124 6.16125ZM23.8387 6.16125C24.0731 6.39566 24.2047 6.71354 24.2047 7.045C24.2047 7.37646 24.0731 7.69434 23.8387 7.92875L22.955 8.8125C22.8397 8.93189 22.7017 9.02712 22.5492 9.09263C22.3967 9.15814 22.2327 9.19262 22.0667 9.19406C21.9008 9.19551 21.7362 9.16388 21.5825 9.10103C21.4289 9.03818 21.2894 8.94536 21.172 8.82799C21.0546 8.71063 20.9618 8.57106 20.899 8.41744C20.8361 8.26382 20.8045 8.09922 20.8059 7.93325C20.8074 7.76727 20.8419 7.60325 20.9074 7.45074C20.9729 7.29824 21.0681 7.16031 21.1875 7.045L22.0712 6.16125C22.3056 5.92691 22.6235 5.79527 22.955 5.79527C23.2864 5.79527 23.6043 5.92691 23.8387 6.16125ZM15 2.5C15.3315 2.5 15.6495 2.6317 15.8839 2.86612C16.1183 3.10054 16.25 3.41848 16.25 3.75V5C16.25 5.33152 16.1183 5.64946 15.8839 5.88388C15.6495 6.1183 15.3315 6.25 15 6.25C14.6685 6.25 14.3505 6.1183 14.1161 5.88388C13.8817 5.64946 13.75 5.33152 13.75 5V3.75C13.75 3.41848 13.8817 3.10054 14.1161 2.86612C14.3505 2.6317 14.6685 2.5 15 2.5Z" fill="white"/>
</g>
<defs>
<clipPath id="clip0_32_220">
<rect width="30" height="30" fill="white"/>
</clipPath>
</defs>
</svg>
